<svg width="42" height="17" viewBox="0 0 42 17" fill="none" xmlns="http://www.w3.org/2000/svg">
<path d="M0 1C0 0.447715 0.447715 0 1 0H40.2516C41.025 0 41.5057 0.840387 41.1135 1.50702L37.2982 7.99298C37.1142 8.30593 37.1142 8.69407 37.2982 9.00702L41.1135 15.493C41.5057 16.1596 41.025 17 40.2516 17H1C0.447716 17 0 16.5523 0 16V1Z" fill="#4AAF50"/>
<path d="M14.086 13V3.662H12.448V10.144L7.674 3.662H5.994V13H7.632V6.336L12.504 13H14.086ZM19.1502 13.168C20.2282 13.168 21.2222 12.832 21.8942 12.188L21.2222 11.222C20.7462 11.698 19.9622 11.964 19.3042 11.964C18.0302 11.964 17.2602 11.124 17.1482 10.102H22.3702V9.752C22.3702 7.624 21.0682 6.07 19.0382 6.07C17.0362 6.07 15.6082 7.652 15.6082 9.612C15.6082 11.754 17.1202 13.168 19.1502 13.168ZM20.9422 9.066H17.1342C17.2042 8.24 17.7782 7.274 19.0382 7.274C20.3682 7.274 20.9142 8.268 20.9422 9.066ZM31.2551 13L33.3551 6.238H31.8291L30.4011 11.152L28.7911 6.238H27.5031L25.8931 11.152L24.4651 6.238H22.9391L25.0391 13H26.5791L28.1471 8.044L29.7151 13H31.2551Z" fill="white"/>
</svg>
