<?xml version="1.0" encoding="utf-8"?>
<!-- Generator: Adobe Illustrator 24.3.0, SVG Export Plug-In . SVG Version: 6.00 Build 0)  -->
<svg version="1.1" id="Layer_1" xmlns="http://www.w3.org/2000/svg" xmlns:xlink="http://www.w3.org/1999/xlink" x="0px" y="0px"
	 viewBox="0 0 309.44 198.69" style="enable-background:new 0 0 309.44 198.69;" xml:space="preserve">
<style type="text/css">
	.st0{fill:#3E5BC7;}
	.st1{opacity:0.2;fill:#1E1545;}
	.st2{fill:#FF6310;}
	.st3{fill:#170238;}
	.st4{fill:#FFFFFF;}
	.st5{fill:#DFDEDD;}
	.st6{fill:#FFA631;}
	.st7{fill:#FCC757;}
	.st8{fill:#00AB93;}
	.st9{fill:#333333;}
	.st10{fill:none;stroke:#FFDA2C;stroke-width:0.5;stroke-miterlimit:10;}
	.st11{fill:none;stroke:#F97EB5;stroke-width:0.75;stroke-linecap:round;stroke-miterlimit:10;}
	.st12{fill:#78DA65;}
	.st13{fill:#54DBBF;}
	.st14{fill:none;stroke:#FFDA2C;stroke-width:0.5;stroke-linecap:round;stroke-miterlimit:10;}
	.st15{fill:none;stroke:#F9D720;stroke-miterlimit:10;}
	.st16{fill:none;stroke:#FF5A43;stroke-width:0.5;stroke-miterlimit:10;}
	.st17{fill:#FF5A43;}
	.st18{fill:#8434F4;}
</style>
<path class="st0" d="M309.44,197.74l-34.54-0.05l-42.17-0.07l-57.8-0.1h-4.22l-129.69-0.19l-35-0.07l3.29-15.04l10.83-4.7
	c0,0,24.15-87.49,119.15-102.1c5.93-0.94,12.16-1.57,18.68-1.89c0,0,8.62-0.61,21.53,0.85c18.87,2.08,46.94,8.6,70.66,27.86
	l9.91-1.4l18.8,15.53l-1.41,9.4C277.46,125.75,307.57,152.11,309.44,197.74z"/>
<path class="st1" d="M170.7,197.54c-3.59-5.67-5.67-12.39-5.67-19.57c0-20.26,16.43-36.69,36.69-36.69c7.57,0,14.59,2.29,20.41,6.21
	c0.03,0,0.06,0,0.09,0.06c9.77,6.6,16.19,17.76,16.19,30.42c0,7.24-2.08,13.99-5.7,19.66l-57.8-0.09"/>
<path class="st0" d="M238.41,177.97c0,7.24-2.08,13.99-5.7,19.66l-57.8-0.09c-2.41-4.88-3.8-10.4-3.8-16.25
	c0-20.26,16.43-36.69,36.72-36.69c5.06,0,9.89,1.02,14.29,2.89c0.03,0,0.06,0,0.09,0.06C231.99,154.15,238.41,165.31,238.41,177.97z
	"/>
<path class="st1" d="M129.5,154.13c0,10.88-8.81,19.7-19.68,19.7c-2.72,0-5.29-0.55-7.65-1.54l-0.02-0.02
	c-7.05-2.98-12.02-9.98-12.02-18.14c0-10.87,8.81-19.68,19.68-19.68c4.06,0,7.83,1.23,10.95,3.33c0.02,0,0.03,0,0.05,0.03
	C126.06,141.35,129.5,147.34,129.5,154.13z"/>
<path class="st0" d="M129.5,154.13c0,10.88-8.81,19.7-19.68,19.7c-2.72,0-5.29-0.55-7.65-1.54l-0.02-0.02
	c-5.27-3.54-8.75-9.54-8.75-16.37c0-10.87,8.81-19.68,19.7-19.68c2.72,0,5.3,0.55,7.66,1.55c0.02,0,0.03,0,0.05,0.03
	C126.06,141.35,129.5,147.34,129.5,154.13z"/>
<ellipse class="st1" cx="161.81" cy="83.23" rx="25.17" ry="4.92"/>
<g>
	<path class="st2" d="M29.32,156c0,0-21.66,10.49-13.08,41.42c0,0,4.58-15.55,19.28-19.57L29.32,156z"/>
	<path class="st2" d="M69.91,156c0,0,21.66,10.49,13.08,41.42c0,0-4.58-15.55-19.28-19.57L69.91,156z"/>
	<path class="st3" d="M56.65,184.3H41.93c-0.58,0-1.08-0.4-1.21-0.97l-0.81-3.56c-0.18-0.78,0.41-1.52,1.21-1.52h16.34
		c0.8,0,1.39,0.74,1.21,1.52l-0.81,3.56C57.73,183.9,57.23,184.3,56.65,184.3z"/>
	<path class="st4" d="M71.17,146c-0.07,1.24-0.19,2.42-0.29,3.59c-2.06,21.22-8.89,31.27-9.33,31.93c-0.02,0-0.02,0.02-0.02,0.02
		c-10.46-4.24-19.65-1.72-22.94-0.53c-0.85,0.31-1.31,0.53-1.31,0.53c-0.22-0.44-0.46-0.87-0.65-1.31
		c-0.63-1.26-1.21-2.57-1.74-3.92l-0.02-0.02c-5.09-12.77-6.81-28.63-6.81-28.63c-1.7-19.02,1.28-34.06,5.55-45.3
		c0.05-0.12,0.1-0.24,0.15-0.36h32.58C71,115.84,72.11,131.93,71.17,146z"/>
</g>
<path class="st5" d="M71.49,147.17c-0.07,1.24-0.19,2.42-0.29,3.59c-1.45,11.51-4.31,22.62-9.33,31.93c-0.02,0-0.02,0.02-0.02,0.02
	s-14.66,2.08-22.94-0.53c-0.7-0.22-1.63-0.64-1.63-0.64l-1.97-4.02c1.62,0.82,5.34,1.75,14.08,0.98c0,0,4.82-31.97,2.88-75.33
	c-0.34-7.46-0.87-15.26-1.65-23.3l1.02-0.24c0.48,0.15,0.92,0.41,1.31,0.8c6.27,5.93,10.71,13.88,13.69,22.75
	C71.32,117.01,72.43,133.1,71.49,147.17z"/>
<circle class="st6" cx="49.97" cy="125.58" r="12.57"/>
<ellipse transform="matrix(0.2287 -0.9735 0.9735 0.2287 -83.7053 145.5079)" class="st7" cx="49.97" cy="125.58" rx="8.73" ry="8.73"/>
<path class="st4" d="M51.45,197.08c-0.06,0.17-0.13,0.34-0.19,0.51c0,0.02,0,0.02-0.02,0.04c-0.3,0.7-0.46,1.05-0.46,1.05
	c-7.49-20.2-2.38-37.71-0.57-42.77c0.02-0.06,0.04-0.11,0.04-0.11c0.32-0.91,0.53-1.37,0.53-1.37
	C59,174.6,53.51,191.89,51.45,197.08z"/>
<path class="st2" d="M50.86,196.91c-0.06,0.17-0.13,0.34-0.19,0.51c0,0.02,0,0.02-0.02,0.04c-0.3,0.7-0.46,1.05-0.46,1.05
	c-7.49-20.2-2.38-37.71-0.57-42.77c0.02-0.06,0.04-0.11,0.04-0.11C57.29,174.28,53.16,190.47,50.86,196.91z"/>
<path class="st8" d="M91.84,4.9c0,0,7.87,2.56,12.64,0s7.84-5.56,22.6-4.5l1.61,23.32c0,0-8.31-2.56-17.68,1.59
	S96,28.94,93.96,27.17L91.84,4.9z"/>
<polygon class="st9" points="128.15,0 136.05,84.48 134.44,84.48 126.42,0.47 "/>
<g>
	<g>

			<ellipse transform="matrix(4.480493e-03 -1 1 4.480493e-03 104.0851 218.3615)" class="st9" cx="161.71" cy="56.9" rx="25.93" ry="24.57"/>
		<circle class="st9" cx="161.84" cy="28.93" r="18.08"/>

			<ellipse transform="matrix(4.480493e-03 -1 1 4.480493e-03 99.8137 222.5759)" class="st4" cx="161.69" cy="61.16" rx="18.52" ry="17.54"/>
		<path class="st9" d="M143.76,28.85c0,0,0.27,8.12-5.04,18.94c9.18-4.68,11.22-8.31,11.22-8.31l-2.55-9.49L143.76,28.85z"/>
		<path class="st9" d="M179.86,29.01c0,0-0.35,8.11,4.87,18.98c-9.13-4.76-11.14-8.41-11.14-8.41l2.63-9.47L179.86,29.01z"/>

			<ellipse transform="matrix(4.480493e-03 -1 1 4.480493e-03 140.2491 197.7188)" class="st4" cx="169.43" cy="28.42" rx="5.82" ry="5.54"/>

			<ellipse transform="matrix(4.480493e-03 -1 1 4.480493e-03 140.2174 197.5792)" class="st9" cx="169.34" cy="28.37" rx="2.51" ry="2.39"/>

			<ellipse transform="matrix(4.480493e-03 -1 1 4.480493e-03 124.4898 181.7462)" class="st4" cx="153.53" cy="28.35" rx="5.82" ry="5.54"/>

			<ellipse transform="matrix(4.480493e-03 -1 1 4.480493e-03 124.8044 182.43)" class="st9" cx="154.03" cy="28.53" rx="2.51" ry="2.39"/>
		<path class="st4" d="M161.29,33.79l-2.17,2.23c-0.29,0.3,0,0.66,0.49,0.74c0,0,0.61,0.15,2.19,0.15s2.13-0.14,2.13-0.14
			c0.52-0.09,0.79-0.43,0.49-0.73l-2.15-2.25C162.03,33.54,161.54,33.54,161.29,33.79z"/>
		<path class="st4" d="M162.25,40.21l2.17-2.23c0.29-0.3,0.01-0.73-0.49-0.74c0,0-0.61,0.14-2.13,0.14
			c-1.51-0.01-2.19-0.15-2.19-0.15c-0.5,0-0.79,0.43-0.49,0.73l2.15,2.25C161.51,40.46,162,40.46,162.25,40.21z"/>
		<g>
			<path class="st9" d="M143.3,54.17c-3.95,2.23-8.34,3.76-13.01,4.41c-0.69,0.1-1.07-0.79-0.51-1.22c4.47-3.5,8.12-8,10.6-13.18
				c0.18-0.37,0.64-0.51,0.99-0.29l2,1.28c0.2,0.13,0.32,0.35,0.32,0.58l-0.04,7.82C143.64,53.82,143.51,54.05,143.3,54.17z"/>
		</g>
		<path class="st9" d="M159.41,83.83c0,0,0-0.01,0-0.01c0.01-2.54-2.04-4.61-4.58-4.62c-2.54-0.01-4.61,2.04-4.62,4.58
			c0,0,0,0.01,0,0.01L159.41,83.83z"/>
		<path class="st9" d="M172.84,83.89c0,0,0-0.01,0-0.01c0.01-2.54-2.04-4.61-4.58-4.62s-4.61,2.04-4.62,4.58c0,0,0,0.01,0,0.01
			L172.84,83.89z"/>
	</g>
	<g>
		<path class="st9" d="M191.68,56.48c0.69,0.12,1.1-0.75,0.56-1.2c-3.08-2.61-5.72-5.72-7.8-9.19c-0.01,0.02-0.01,0.07-0.03,0.06
			c-5.28-2.57-7.41,4.63-4.44,6.67C183.37,54.68,187.72,55.76,191.68,56.48z"/>
	</g>
</g>
<path class="st1" d="M309.44,197.74l-34.54-0.05c0-0.31-0.02-0.65-0.05-0.97c-5.94-91.95-95.83-121.94-95.83-121.94l0.48-0.41
	c18.87,2.08,46.94,8.6,70.66,27.86l9.91-1.4l18.8,15.53l-1.41,9.4C277.46,125.75,307.57,152.11,309.44,197.74z"/>
<line class="st10" x1="12.66" y1="149.79" x2="0" y2="149.79"/>
<line class="st10" x1="6.33" y1="143.46" x2="6.33" y2="156.12"/>
<line class="st11" x1="99.6" y1="72.03" x2="91.83" y2="72.03"/>
<line class="st11" x1="95.71" y1="68.15" x2="95.71" y2="75.91"/>
<circle class="st12" cx="73.85" cy="90.88" r="1.93"/>
<circle class="st13" cx="221.66" cy="68.74" r="4.04"/>
<line class="st14" x1="256.03" y1="81.51" x2="247.32" y2="81.51"/>
<line class="st14" x1="251.68" y1="77.15" x2="251.68" y2="85.86"/>
<circle class="st15" cx="199.6" cy="44.96" r="1.91"/>
<circle class="st6" cx="296.85" cy="125.64" r="1.88"/>
<path class="st16" d="M162.86,2.12c0,0-11.72-0.62-19.14,9.43c-7.42,10.05-8.56,24.01,1.94,28.27c0,0,12.51,8.89,29.47,2.1
	c0,0,2.83-0.28,3.63-0.97c0.79-0.69,7.79-7.35,6.53-17.28C184.03,13.74,177.86,2.53,162.86,2.12z"/>
<path class="st17" d="M142.33,38.31c0,0-1.12,1.06-0.59,2.45c0.75,1.97,13,5.51,23.17,4.52c8.84-0.86,15.66-4.3,16.58-5.31
	c0.62-0.68,0.34-2.65-0.58-2.8C180.91,37.16,165.24,48.58,142.33,38.31z"/>
<path class="st18" d="M66.32,101.99H33.74c4.36-11.34,9.98-18.77,13.25-22.48c1.11-1.26,2.86-1.65,4.34-1.07
	c0.48,0.15,0.92,0.41,1.31,0.8C58.91,85.18,63.34,93.12,66.32,101.99z"/>
</svg>
